<svg width="107" height="107" viewBox="0 0 107 107" fill="none" xmlns="http://www.w3.org/2000/svg">
<path d="M45.271 5.97871C50.1778 2.41369 56.8222 2.4137 61.729 5.97871L96.1525 30.9889C101.059 34.5539 103.113 40.873 101.238 46.6414L88.0897 87.1087C86.2155 92.877 80.8401 96.7824 74.7749 96.7824H32.2251C26.1599 96.7824 20.7845 92.877 18.9103 87.1086L5.76167 46.6413C3.88743 40.873 5.94065 34.5539 10.8475 30.9889L45.271 5.97871Z" fill="#1F6BFF" fill-opacity="0.1"/>
<path d="M46.3094 61.24C44.3094 61.24 42.7814 60.488 41.7254 58.984C40.6694 57.464 40.1414 55.304 40.1414 52.504C40.1414 50.616 40.3734 49.032 40.8374 47.752C41.3174 46.456 42.0134 45.48 42.9254 44.824C43.8534 44.168 44.9814 43.84 46.3094 43.84C48.3254 43.84 49.8534 44.576 50.8934 46.048C51.9494 47.52 52.4774 49.664 52.4774 52.48C52.4774 54.352 52.2374 55.944 51.7574 57.256C51.2934 58.552 50.6054 59.544 49.6934 60.232C48.7814 60.904 47.6534 61.24 46.3094 61.24ZM46.3094 58.72C47.3974 58.72 48.1974 58.216 48.7094 57.208C49.2374 56.2 49.5014 54.624 49.5014 52.48C49.5014 50.336 49.2374 48.784 48.7094 47.824C48.1974 46.848 47.3974 46.36 46.3094 46.36C45.2374 46.36 44.4374 46.848 43.9094 47.824C43.3814 48.784 43.1174 50.336 43.1174 52.48C43.1174 54.624 43.3814 56.2 43.9094 57.208C44.4374 58.216 45.2374 58.72 46.3094 58.72ZM56.692 61C56.18 61 55.804 60.888 55.564 60.664C55.34 60.424 55.228 60.08 55.228 59.632C55.228 59.36 55.3 59.096 55.444 58.84C55.588 58.584 55.796 58.312 56.068 58.024L60.892 52.888C61.628 52.12 62.156 51.424 62.476 50.8C62.796 50.16 62.956 49.52 62.956 48.88C62.956 48.08 62.7 47.472 62.188 47.056C61.692 46.64 60.964 46.432 60.004 46.432C59.46 46.432 58.916 46.512 58.372 46.672C57.828 46.816 57.276 47.072 56.716 47.44C56.428 47.632 56.156 47.712 55.9 47.68C55.66 47.648 55.444 47.544 55.252 47.368C55.076 47.192 54.956 46.976 54.892 46.72C54.828 46.464 54.836 46.208 54.916 45.952C55.012 45.68 55.204 45.448 55.492 45.256C56.18 44.792 56.948 44.44 57.796 44.2C58.66 43.96 59.524 43.84 60.388 43.84C61.604 43.84 62.628 44.024 63.46 44.392C64.292 44.76 64.924 45.296 65.356 46C65.788 46.704 66.004 47.56 66.004 48.568C66.004 49.24 65.892 49.896 65.668 50.536C65.46 51.176 65.132 51.824 64.684 52.48C64.252 53.136 63.684 53.832 62.98 54.568L58.468 59.272V58.456H65.524C65.956 58.456 66.284 58.56 66.508 58.768C66.732 58.976 66.844 59.288 66.844 59.704C66.844 60.12 66.732 60.44 66.508 60.664C66.284 60.888 65.956 61 65.524 61H56.692Z" fill="#1F6BFF"/>
</svg>
