<svg width="107" height="107" viewBox="0 0 107 107" fill="none" xmlns="http://www.w3.org/2000/svg">
<path d="M45.271 5.97871C50.1778 2.41369 56.8222 2.4137 61.729 5.97871L96.1525 30.9889C101.059 34.5539 103.113 40.873 101.238 46.6414L88.0897 87.1087C86.2155 92.877 80.8401 96.7824 74.7749 96.7824H32.2251C26.1599 96.7824 20.7845 92.877 18.9103 87.1086L5.76167 46.6413C3.88743 40.873 5.94065 34.5539 10.8475 30.9889L45.271 5.97871Z" fill="#FFCA45" fill-opacity="0.1"/>
<path d="M46.3094 60.24C44.3094 60.24 42.7814 59.488 41.7254 57.984C40.6694 56.464 40.1414 54.304 40.1414 51.504C40.1414 49.616 40.3734 48.032 40.8374 46.752C41.3174 45.456 42.0134 44.48 42.9254 43.824C43.8534 43.168 44.9814 42.84 46.3094 42.84C48.3254 42.84 49.8534 43.576 50.8934 45.048C51.9494 46.52 52.4774 48.664 52.4774 51.48C52.4774 53.352 52.2374 54.944 51.7574 56.256C51.2934 57.552 50.6054 58.544 49.6934 59.232C48.7814 59.904 47.6534 60.24 46.3094 60.24ZM46.3094 57.72C47.3974 57.72 48.1974 57.216 48.7094 56.208C49.2374 55.2 49.5014 53.624 49.5014 51.48C49.5014 49.336 49.2374 47.784 48.7094 46.824C48.1974 45.848 47.3974 45.36 46.3094 45.36C45.2374 45.36 44.4374 45.848 43.9094 46.824C43.3814 47.784 43.1174 49.336 43.1174 51.48C43.1174 53.624 43.3814 55.2 43.9094 56.208C44.4374 57.216 45.2374 57.72 46.3094 57.72ZM60.364 60.24C59.5 60.24 58.604 60.128 57.676 59.904C56.748 59.68 55.94 59.344 55.252 58.896C54.932 58.688 54.716 58.448 54.604 58.176C54.492 57.904 54.46 57.648 54.508 57.408C54.572 57.152 54.692 56.936 54.868 56.76C55.06 56.584 55.292 56.48 55.564 56.448C55.852 56.416 56.164 56.488 56.5 56.664C57.156 57.016 57.788 57.272 58.396 57.432C59.004 57.576 59.628 57.648 60.268 57.648C60.972 57.648 61.564 57.552 62.044 57.36C62.524 57.168 62.884 56.88 63.124 56.496C63.38 56.112 63.508 55.648 63.508 55.104C63.508 54.304 63.236 53.712 62.692 53.328C62.164 52.928 61.388 52.728 60.364 52.728H58.828C58.38 52.728 58.036 52.616 57.796 52.392C57.572 52.168 57.46 51.856 57.46 51.456C57.46 51.056 57.572 50.744 57.796 50.52C58.036 50.296 58.38 50.184 58.828 50.184H60.076C60.684 50.184 61.204 50.088 61.636 49.896C62.068 49.688 62.404 49.4 62.644 49.032C62.884 48.664 63.004 48.216 63.004 47.688C63.004 46.952 62.756 46.392 62.26 46.008C61.78 45.624 61.076 45.432 60.148 45.432C59.556 45.432 58.996 45.504 58.468 45.648C57.956 45.776 57.388 46.024 56.764 46.392C56.476 46.568 56.196 46.64 55.924 46.608C55.668 46.576 55.452 46.472 55.276 46.296C55.1 46.12 54.98 45.912 54.916 45.672C54.852 45.416 54.868 45.16 54.964 44.904C55.06 44.632 55.26 44.4 55.564 44.208C56.252 43.76 57.012 43.424 57.844 43.2C58.676 42.96 59.532 42.84 60.412 42.84C61.58 42.84 62.58 43.024 63.412 43.392C64.244 43.744 64.876 44.256 65.308 44.928C65.756 45.584 65.98 46.384 65.98 47.328C65.98 48 65.852 48.616 65.596 49.176C65.34 49.72 64.98 50.184 64.516 50.568C64.052 50.952 63.492 51.224 62.836 51.384V51.096C63.988 51.288 64.884 51.768 65.524 52.536C66.164 53.288 66.484 54.232 66.484 55.368C66.484 56.36 66.236 57.224 65.74 57.96C65.244 58.696 64.54 59.264 63.628 59.664C62.716 60.048 61.628 60.24 60.364 60.24Z" fill="#FFCA45"/>
</svg>
