<svg width="102" height="97" viewBox="0 0 102 97" fill="none" xmlns="http://www.w3.org/2000/svg">
<path d="M42.6525 5.97871C47.5594 2.41369 54.2037 2.4137 59.1105 5.97871L93.5341 30.9889C98.4409 34.5539 100.494 40.873 98.6199 46.6414L85.4712 87.1087C83.597 92.877 78.2216 96.7824 72.1564 96.7824H29.6066C23.5414 96.7824 18.1661 92.877 16.2918 87.1087L3.14319 46.6413C1.26895 40.873 3.32217 34.5539 8.22899 30.9889L42.6525 5.97871Z" fill="#FE6B01" fill-opacity="0.1"/>
<path d="M43.6909 61.24C41.6909 61.24 40.1629 60.488 39.1069 58.984C38.0509 57.464 37.5229 55.304 37.5229 52.504C37.5229 50.616 37.7549 49.032 38.2189 47.752C38.6989 46.456 39.3949 45.48 40.3069 44.824C41.2349 44.168 42.3629 43.84 43.6909 43.84C45.7069 43.84 47.2349 44.576 48.2749 46.048C49.3309 47.52 49.8589 49.664 49.8589 52.48C49.8589 54.352 49.6189 55.944 49.1389 57.256C48.6749 58.552 47.9869 59.544 47.0749 60.232C46.1629 60.904 45.0349 61.24 43.6909 61.24ZM43.6909 58.72C44.7789 58.72 45.5789 58.216 46.0909 57.208C46.6189 56.2 46.8829 54.624 46.8829 52.48C46.8829 50.336 46.6189 48.784 46.0909 47.824C45.5789 46.848 44.7789 46.36 43.6909 46.36C42.6189 46.36 41.8189 46.848 41.2909 47.824C40.7629 48.784 40.4989 50.336 40.4989 52.48C40.4989 54.624 40.7629 56.2 41.2909 57.208C41.8189 58.216 42.6189 58.72 43.6909 58.72ZM54.6255 61C54.2095 61 53.8815 60.888 53.6415 60.664C53.4175 60.424 53.3055 60.104 53.3055 59.704C53.3055 59.288 53.4175 58.976 53.6415 58.768C53.8815 58.56 54.2095 58.456 54.6255 58.456H57.3135V46.672H58.8015L55.2735 48.808C54.9695 48.984 54.6815 49.056 54.4095 49.024C54.1535 48.976 53.9295 48.864 53.7375 48.688C53.5615 48.496 53.4415 48.272 53.3775 48.016C53.3135 47.76 53.3295 47.504 53.4255 47.248C53.5375 46.976 53.7455 46.752 54.0495 46.576L57.3615 44.584C57.6815 44.392 58.0015 44.232 58.3215 44.104C58.6415 43.96 58.9375 43.888 59.2095 43.888C59.5455 43.888 59.8255 43.984 60.0495 44.176C60.2735 44.352 60.3855 44.648 60.3855 45.064V58.456H62.8335C63.2495 58.456 63.5695 58.56 63.7935 58.768C64.0335 58.976 64.1535 59.288 64.1535 59.704C64.1535 60.12 64.0335 60.44 63.7935 60.664C63.5695 60.888 63.2495 61 62.8335 61H54.6255Z" fill="#FF8345"/>
</svg>
